<svg width="32" height="32" viewBox="0 0 32 32" fill="none" xmlns="http://www.w3.org/2000/svg">
<rect width="32" height="32" rx="2" fill="#2682F9"/>
<path d="M14.9316 8.21198L7.46976 11.2985C7.05145 11.4681 7.06275 12.056 7.48107 12.2256L14.9655 15.199C15.6213 15.459 16.3561 15.459 17.0119 15.199L24.4963 12.2256C24.9146 12.056 24.9146 11.4681 24.5076 11.2985L17.0458 8.21198C16.3787 7.92934 15.61 7.92934 14.9316 8.21198Z" fill="white"/>
<path d="M16.6614 16.8158V24.2324C16.6614 24.5829 17.0119 24.8316 17.3397 24.6959L25.6834 21.4625C25.8756 21.3833 26 21.2024 26 20.9989V13.571C26 13.2205 25.6495 12.9718 25.3216 13.1075L16.9779 16.3522C16.7857 16.4201 16.6614 16.601 16.6614 16.8158Z" fill="white"/>
<path d="M14.7055 17.1888L12.2295 18.3872L11.9808 18.5116L6.75749 21.0214C6.42962 21.1797 6 20.9423 6 20.5692V13.6048C6 13.4692 6.06783 13.3561 6.15828 13.2657C6.1922 13.2317 6.23742 13.1978 6.28265 13.1752C6.40701 13.0961 6.5879 13.0848 6.73488 13.1413L14.6603 16.2843C15.0673 16.4426 15.1012 17.0079 14.7055 17.1888Z" fill="white"/>
</svg>
