<svg width="16" height="15" fill="none" xmlns="http://www.w3.org/2000/svg"><path fill-rule="evenodd" clip-rule="evenodd" d="M14.406 1c.45 0 .593.135.593.555v11.888c0 .437-.133.557-.608.557H1.604C1.13 14 1 13.88 1 13.44V1.55c0-.421.137-.55.594-.55C5.864 1 10.136 1 14.406 1Zm-.143 8.895H10.58v3.42h3.684v-3.42Zm-4.42 0H6.157v3.42h3.684v-3.42Zm-4.422 0H1.737v3.42H5.42v-3.42Zm8.842-4.106H10.58v3.422h3.684V5.789Zm-4.42 0H6.157v3.422h3.684V5.789Zm-4.422 0H1.737v3.422H5.42V5.789Zm8.842-4.105H10.58v3.421h3.684v-3.42Zm-4.42 0H6.157v3.421h3.684v-3.42Zm-4.422 0H1.737v3.421H5.42v-3.42Z" fill="#fff" stroke="#fff" stroke-width=".4"/></svg>