<svg width="19" height="18" fill="none" xmlns="http://www.w3.org/2000/svg"><path d="M9.117 7.8c.423.124.805.348 1.108.65.303.3.518.67.623 1.07.105.4.097.82-.023 1.216-.12.397-.349.759-.663 1.05l-1.83 1.698a2.691 2.691 0 0 1-1.829.704 2.691 2.691 0 0 1-1.83-.704 2.319 2.319 0 0 1-.757-1.698c0-.637.273-1.248.758-1.699l1.588-1.475a4.169 4.169 0 0 1-.037-1.749 4.03 4.03 0 0 0-.767.555l-1.83 1.698c-.762.708-1.19 1.668-1.19 2.67 0 1 .428 1.961 1.19 2.669a4.23 4.23 0 0 0 2.875 1.106 4.23 4.23 0 0 0 2.875-1.106l1.829-1.699a3.721 3.721 0 0 0 1.041-1.643c.19-.621.205-1.277.043-1.906a3.691 3.691 0 0 0-.969-1.68A4.106 4.106 0 0 0 9.592 6.5c-.173.174-.304.38-.386.604a1.579 1.579 0 0 0-.09.696Z" fill="#fff"/><path d="M10.161 9.948a2.617 2.617 0 0 1-1.108-.65 2.352 2.352 0 0 1-.623-1.07c-.105-.4-.097-.82.024-1.216.12-.397.348-.759.663-1.05l1.829-1.698a2.691 2.691 0 0 1 1.83-.704c.685 0 1.343.253 1.829.704.485.45.757 1.061.757 1.698s-.272 1.248-.758 1.699l-1.588 1.475a4.17 4.17 0 0 1 .037 1.749c.279-.156.536-.342.767-.555l1.83-1.698c.762-.708 1.19-1.669 1.19-2.67 0-1-.428-1.961-1.19-2.669a4.23 4.23 0 0 0-2.875-1.106 4.23 4.23 0 0 0-2.874 1.106L8.07 4.992A3.72 3.72 0 0 0 7.03 6.634a3.508 3.508 0 0 0-.042 1.906c.162.629.495 1.207.968 1.682a4.106 4.106 0 0 0 1.73 1.025c.173-.173.304-.379.386-.603a1.58 1.58 0 0 0 .09-.696Z" fill="#fff"/></svg>