<svg width="17" height="14" fill="none" xmlns="http://www.w3.org/2000/svg"><path d="M16.24.5H.56a.583.583 0 0 0-.396.152A.502.502 0 0 0 0 1.02v11.96c0 .138.059.27.164.368a.583.583 0 0 0 .396.152h15.68a.583.583 0 0 0 .396-.152.502.502 0 0 0 .164-.368V1.02a.502.502 0 0 0-.164-.368A.583.583 0 0 0 16.24.5ZM2.8 4.4c0-.257.082-.508.236-.722.154-.214.372-.38.628-.479a1.5 1.5 0 0 1 .81-.074c.27.05.52.174.716.356.196.182.33.413.383.665.054.253.026.514-.08.751-.106.238-.285.441-.515.584-.23.143-.501.219-.778.219-.371 0-.727-.137-.99-.38a1.255 1.255 0 0 1-.41-.92Zm11.694 5.705a.539.539 0 0 1-.206.201.594.594 0 0 1-.288.074H4.48a.59.59 0 0 1-.323-.095.526.526 0 0 1-.204-.25.485.485 0 0 1-.012-.314.518.518 0 0 1 .185-.263l6.16-4.68a.587.587 0 0 1 .437-.112c.077.01.151.036.217.075s.123.09.166.15l3.36 4.68a.495.495 0 0 1 .028.534Z" fill="#fff"/></svg>