<svg width="32" height="32" viewBox="0 0 32 32" fill="none" xmlns="http://www.w3.org/2000/svg">
<rect width="32" height="32" rx="2" fill="#FF7A59"/>
<path d="M20.0537 12.9266V10.7831C20.3338 10.6507 20.5709 10.4406 20.7376 10.1773C20.9042 9.91388 20.9934 9.60806 20.9949 9.29539V9.24587C20.9949 8.80812 20.8229 8.38829 20.5168 8.07874C20.2107 7.7692 19.7956 7.5953 19.3627 7.5953H19.3138C18.8809 7.5953 18.4658 7.7692 18.1597 8.07874C17.8536 8.38829 17.6817 8.80812 17.6817 9.24587V9.29539C17.6831 9.60806 17.7723 9.91388 17.9389 10.1773C18.1056 10.4406 18.3427 10.6507 18.6228 10.7831V12.9266C17.8178 13.0512 17.0596 13.3887 16.4249 13.9049L10.6124 9.3262C10.6536 9.17521 10.6755 9.01954 10.6777 8.86294C10.6783 8.49509 10.5711 8.13531 10.3695 7.82911C10.168 7.52291 9.88113 7.28404 9.54531 7.14272C9.20949 7.0014 8.83977 6.96397 8.48291 7.03517C8.12606 7.10638 7.79809 7.28301 7.54051 7.54273C7.28293 7.80246 7.1073 8.1336 7.03584 8.49428C6.96438 8.85496 7.00029 9.22897 7.13904 9.56901C7.27779 9.90904 7.51314 10.1998 7.81532 10.4046C8.1175 10.6093 8.47294 10.7188 8.83667 10.7193C9.15474 10.7178 9.46688 10.6321 9.74196 10.4706L15.4663 14.9744C14.952 15.7601 14.6836 16.6842 14.6962 17.6264C14.7088 18.5685 15.0018 19.485 15.5371 20.2563L13.7961 22.0169C13.6553 21.9714 13.5087 21.9473 13.3609 21.9453C13.0623 21.9456 12.7705 22.0353 12.5223 22.2032C12.2741 22.3711 12.0807 22.6097 11.9665 22.8887C11.8523 23.1677 11.8225 23.4747 11.8808 23.7709C11.9391 24.0671 12.0829 24.3391 12.2941 24.5527C12.5052 24.7662 12.7742 24.9116 13.0671 24.9706C13.3599 25.0296 13.6635 24.9994 13.9394 24.8839C14.2154 24.7685 14.4512 24.5729 14.6173 24.3219C14.7833 24.0709 14.872 23.7758 14.8722 23.4738C14.8704 23.3243 14.8465 23.176 14.8015 23.0336L16.5239 21.2917C17.0856 21.7288 17.7387 22.0301 18.4333 22.1725C19.1278 22.3149 19.8454 22.2947 20.531 22.1134C21.2167 21.9321 21.8522 21.5944 22.3889 21.1264C22.9256 20.6583 23.3492 20.0723 23.6274 19.4131C23.9055 18.7539 24.0308 18.039 23.9936 17.3233C23.9564 16.6076 23.7577 15.91 23.4128 15.2839C23.0679 14.6578 22.5858 14.1199 22.0036 13.7113C21.4213 13.3027 20.7543 13.0343 20.0537 12.9266ZM19.3399 19.9757C18.8687 19.9752 18.4083 19.8336 18.0167 19.5685C17.6252 19.3035 17.3201 18.9271 17.14 18.4868C16.96 18.0465 16.913 17.562 17.0051 17.0948C17.0972 16.6275 17.3243 16.1983 17.6575 15.8614C17.9907 15.5246 18.4152 15.2952 18.8773 15.2023C19.3394 15.1094 19.8184 15.1571 20.2537 15.3393C20.689 15.5216 21.0611 15.8303 21.323 16.2264C21.5849 16.6225 21.7247 17.0883 21.725 17.5647C21.725 18.2039 21.4739 18.8168 21.027 19.2687C20.5801 19.7207 19.974 19.9746 19.3421 19.9746" fill="white"/>
</svg>
