<svg width="32" height="32" viewBox="0 0 32 32" fill="none" xmlns="http://www.w3.org/2000/svg">
<rect width="32" height="32" rx="2" fill="#FFB629"/>
<rect x="7.5" y="20.5" width="17" height="3" rx="1.5" stroke="white"/>
<path d="M7 22C7 20.8954 7.89543 20 9 20H16V24H9C7.89543 24 7 23.1046 7 22Z" fill="white"/>
<path d="M12.5382 14.276C12.6402 14.0795 12.7989 13.9174 12.9946 13.8096L22.5402 8.55117C23.0931 8.24662 23.797 8.44289 24.1126 8.98954L24.4286 9.53708C24.7441 10.0837 24.5517 10.7738 23.9989 11.0783L14.4348 16.3469C14.2507 16.4483 14.0412 16.4976 13.8293 16.4892L12.3459 16.4309C11.9236 16.4142 11.6579 15.9715 11.8492 15.6031L12.5382 14.276Z" fill="white" stroke="white" stroke-width="0.8"/>
</svg>
