<svg width="32" height="32" viewBox="0 0 32 32" fill="none" xmlns="http://www.w3.org/2000/svg">
<rect width="32" height="32" rx="2" fill="#595AD4"/>
<path d="M8.43534 21.9714C8.0002 21.9707 7.57318 21.8536 7.19854 21.6323C6.82389 21.411 6.51528 21.0935 6.30469 20.7127C6.0941 20.3319 5.9892 19.9017 6.00088 19.4667C6.01255 19.0318 6.14037 18.6078 6.37109 18.2389L10.7592 11.2311C11.1025 10.6829 11.6495 10.2936 12.2798 10.1488C12.5919 10.077 12.9151 10.0675 13.2309 10.1206C13.5466 10.1738 13.8489 10.2886 14.1203 10.4586C14.3917 10.6286 14.627 10.8503 14.8127 11.1112C14.9984 11.3721 15.1309 11.6671 15.2026 11.9792C15.2743 12.2913 15.2839 12.6144 15.2307 12.9302C15.1776 13.246 15.0627 13.5483 14.8928 13.8197L10.5036 20.8275C10.2843 21.178 9.97931 21.4669 9.61748 21.6671C9.25564 21.8672 8.84882 21.9719 8.43534 21.9714V21.9714Z" fill="white"/>
<path d="M15.9976 21.9713C15.5621 21.9714 15.1346 21.8548 14.7594 21.6338C14.3841 21.4127 14.075 21.0953 13.8639 20.7144C13.6528 20.3335 13.5476 19.903 13.5591 19.4677C13.5706 19.0324 13.6984 18.6081 13.9293 18.2388L18.3205 11.231C18.4833 10.9453 18.7022 10.6955 18.9641 10.4966C19.226 10.2977 19.5254 10.1538 19.8443 10.0736C20.1632 9.99342 20.495 9.97857 20.8199 10.03C21.1447 10.0813 21.4557 10.1979 21.7343 10.3726C22.0129 10.5473 22.2533 10.7766 22.4409 11.0466C22.6286 11.3167 22.7598 11.6219 22.8264 11.9439C22.8931 12.2659 22.8939 12.5981 22.8289 12.9204C22.7639 13.2428 22.6343 13.5486 22.448 13.8196L18.0648 20.8274C17.8455 21.1779 17.5405 21.4669 17.1787 21.667C16.8169 21.8671 16.4101 21.9719 15.9966 21.9713H15.9976Z" fill="white"/>
<path d="M23.5578 21.9704C24.9066 21.9704 26 20.9043 26 19.5893C26 18.2743 24.9066 17.2083 23.5578 17.2083C22.209 17.2083 21.1156 18.2743 21.1156 19.5893C21.1156 20.9043 22.209 21.9704 23.5578 21.9704Z" fill="white"/>
</svg>
