<svg id="Layer_1" data-name="Layer 1" xmlns="http://www.w3.org/2000/svg" viewBox="0 0 156.15 156.15"><defs><style>.cls-1{fill:#192435;}.cls-2{fill:#fff;fill-rule:evenodd;}</style></defs><path class="cls-1" d="M142.8,0H13.35A13.36,13.36,0,0,0,0,13.36V142.8a13.35,13.35,0,0,0,13.35,13.35H142.8a13.35,13.35,0,0,0,13.35-13.35V13.36A13.36,13.36,0,0,0,142.8,0Z"/><path class="cls-2" d="M65.07,64.3C65.07,47.83,74,42,82.33,42c10.25,0,17.13,8.91,17.13,22.17C99.46,79.28,90.7,86,82.05,86,70.37,86,65.07,74.75,65.07,64.3ZM86.45,22.6c-12.18,0-19.23,5.52-22.63,9.33-.41-3.28-2.55-7.55-10.93-7.55H34.7V43.6h7.45c1.27,0,1.68.41,1.68,1.68V133H65.51V100.1c0-.89,0-1.72,0-2.46a28.74,28.74,0,0,0,20,7.46c21.19,0,36-17,36-41.25C121.45,39.18,107.38,22.6,86.45,22.6Z"/></svg>