<svg width="35" height="35" viewBox="0 0 35 35" fill="none" xmlns="http://www.w3.org/2000/svg">
<rect width="35" height="35" rx="2" fill="#00A1E0"/>
<path d="M15.9874 10.9328C16.7614 10.1263 17.839 9.62613 19.0308 9.62613C20.615 9.62613 21.9973 10.5095 22.7333 11.821C23.373 11.5352 24.081 11.3762 24.826 11.3762C27.6834 11.3762 30 13.713 30 16.5954C30 19.4781 27.6834 21.8148 24.826 21.8148C24.4773 21.8148 24.1364 21.78 23.8068 21.7133C23.1586 22.8695 21.9234 23.6507 20.5056 23.6507C19.9121 23.6507 19.3508 23.5137 18.8509 23.2699C18.1938 24.8155 16.6629 25.8993 14.8786 25.8993C13.0205 25.8993 11.4369 24.7236 10.8291 23.0747C10.5634 23.1311 10.2882 23.1605 10.0058 23.1605C7.7935 23.1605 6 21.3485 6 19.113C6 17.6148 6.80581 16.3068 8.00308 15.607C7.75658 15.0398 7.61949 14.4138 7.61949 13.7557C7.61949 11.1848 9.70667 9.10066 12.281 9.10066C13.7925 9.10066 15.1357 9.81929 15.9874 10.9328Z" fill="white"/>
<path d="M9.47613 17.8121C9.46108 17.8514 9.4816 17.8596 9.48638 17.8665C9.53151 17.8993 9.57732 17.9229 9.62348 17.9492C9.86826 18.0791 10.0994 18.1171 10.3411 18.1171C10.8334 18.1171 11.139 17.8552 11.139 17.4336V17.4254C11.139 17.0357 10.7941 16.8942 10.4703 16.7919L10.4283 16.7783C10.1842 16.6989 9.97356 16.6306 9.97356 16.4699V16.4613C9.97356 16.3239 10.0966 16.2227 10.2874 16.2227C10.4994 16.2227 10.751 16.2931 10.9131 16.3827C10.9131 16.3827 10.9606 16.4135 10.978 16.3673C10.9876 16.3427 11.0696 16.1219 11.0782 16.0979C11.0874 16.0719 11.071 16.0528 11.0542 16.0425C10.8693 15.9301 10.6136 15.8531 10.3489 15.8531L10.2997 15.8535C9.84912 15.8535 9.53459 16.1256 9.53459 16.5157V16.5239C9.53459 16.9352 9.8816 17.0685 10.2067 17.1615L10.259 17.1776C10.496 17.2504 10.7001 17.313 10.7001 17.4798V17.488C10.7001 17.6405 10.5674 17.754 10.3534 17.754C10.2703 17.754 10.0054 17.7523 9.7192 17.5714C9.68467 17.5513 9.6645 17.5366 9.63784 17.5205C9.62382 17.5116 9.58861 17.4962 9.57322 17.5427L9.47613 17.8121Z" fill="#00A1E0"/>
<path d="M16.6836 17.8121C16.6686 17.8514 16.6891 17.8596 16.6939 17.8665C16.739 17.8993 16.7848 17.9229 16.831 17.9492C17.0758 18.0791 17.3069 18.1171 17.5486 18.1171C18.0409 18.1171 18.3466 17.8552 18.3466 17.4336V17.4254C18.3466 17.0357 18.0016 16.8942 17.6778 16.7919L17.6358 16.7783C17.3917 16.6989 17.1811 16.6306 17.1811 16.4699V16.4613C17.1811 16.3239 17.3042 16.2227 17.4949 16.2227C17.7069 16.2227 17.9585 16.2931 18.1206 16.3827C18.1206 16.3827 18.1681 16.4135 18.1855 16.3673C18.1951 16.3427 18.2772 16.1219 18.2857 16.0979C18.2949 16.0719 18.2785 16.0528 18.2618 16.0425C18.0768 15.9301 17.8211 15.8531 17.5565 15.8531L17.5072 15.8535C17.0566 15.8535 16.7421 16.1256 16.7421 16.5157V16.5239C16.7421 16.9352 17.0891 17.0685 17.4142 17.1615L17.4666 17.1776C17.7035 17.2504 17.9079 17.313 17.9079 17.4798V17.488C17.9079 17.6405 17.7749 17.754 17.5609 17.754C17.4778 17.754 17.2129 17.7523 16.9267 17.5714C16.8922 17.5513 16.8717 17.5372 16.8457 17.5205C16.8368 17.5147 16.7951 17.4986 16.7807 17.5427L16.6836 17.8121Z" fill="#00A1E0"/>
<path d="M21.6036 16.9864C21.6036 17.2247 21.5592 17.4124 21.4716 17.545C21.3851 17.6763 21.2542 17.7402 21.0716 17.7402C20.8887 17.7402 20.7585 17.6767 20.6733 17.545C20.5872 17.4127 20.5434 17.2247 20.5434 16.9864C20.5434 16.7484 20.5872 16.5611 20.6733 16.4298C20.7585 16.2999 20.8887 16.2367 21.0716 16.2367C21.2542 16.2367 21.3851 16.2999 21.472 16.4298C21.5592 16.5611 21.6036 16.7484 21.6036 16.9864ZM22.0145 16.5447C21.9742 16.4083 21.9113 16.2879 21.8275 16.1878C21.7438 16.0873 21.6378 16.0066 21.512 15.9478C21.3865 15.8893 21.2381 15.8596 21.0716 15.8596C20.9048 15.8596 20.7564 15.8893 20.6309 15.9478C20.5051 16.0066 20.3992 16.0873 20.3151 16.1878C20.2316 16.2883 20.1687 16.4086 20.128 16.5447C20.088 16.6804 20.0679 16.8288 20.0679 16.9864C20.0679 17.144 20.088 17.2927 20.128 17.4281C20.1687 17.5642 20.2313 17.6845 20.3154 17.785C20.3992 17.8855 20.5055 17.9659 20.6309 18.023C20.7568 18.0801 20.9048 18.1091 21.0716 18.1091C21.2381 18.1091 21.3862 18.0801 21.512 18.023C21.6374 17.9659 21.7438 17.8855 21.8275 17.785C21.9113 17.6849 21.9742 17.5645 22.0145 17.4281C22.0549 17.2924 22.0751 17.1437 22.0751 16.9864C22.0751 16.8291 22.0549 16.6804 22.0145 16.5447Z" fill="#00A1E0"/>
<path d="M25.3892 17.6766C25.3755 17.6366 25.3369 17.6516 25.3369 17.6516C25.2771 17.6745 25.2135 17.6957 25.1458 17.7063C25.0771 17.7169 25.0015 17.7224 24.9205 17.7224C24.7215 17.7224 24.5636 17.6632 24.4504 17.5463C24.3369 17.4294 24.2733 17.2403 24.274 16.9846C24.2747 16.7518 24.3307 16.5767 24.4316 16.4434C24.5318 16.3108 24.6842 16.2427 24.8877 16.2427C25.0572 16.2427 25.1865 16.2622 25.3219 16.305C25.3219 16.305 25.3543 16.319 25.3697 16.2766C25.4056 16.1768 25.4323 16.1053 25.4706 15.9956C25.4815 15.9644 25.4548 15.9511 25.4453 15.9473C25.3919 15.9265 25.2661 15.8926 25.1711 15.8783C25.0822 15.8646 24.9783 15.8574 24.8627 15.8574C24.6901 15.8574 24.5362 15.8868 24.4046 15.9456C24.2733 16.0041 24.1619 16.0848 24.0736 16.1853C23.9854 16.2858 23.9184 16.4062 23.8736 16.5422C23.8292 16.6779 23.8066 16.827 23.8066 16.9846C23.8066 17.3255 23.8986 17.601 24.0801 17.8027C24.262 18.0051 24.5352 18.108 24.8914 18.108C25.102 18.108 25.3181 18.0653 25.4733 18.0041C25.4733 18.0041 25.5031 17.9897 25.4901 17.9552L25.3892 17.6766Z" fill="#00A1E0"/>
<path d="M26.1077 16.758C26.1272 16.6257 26.1638 16.5156 26.2202 16.4298C26.3053 16.2996 26.4353 16.2281 26.6178 16.2281C26.8004 16.2281 26.9211 16.2999 27.0076 16.4298C27.065 16.5156 27.09 16.6305 27.0999 16.758H26.1077ZM27.4913 16.4671C27.4565 16.3355 27.37 16.2025 27.3132 16.1416C27.2236 16.0452 27.1361 15.9779 27.0493 15.9403C26.9358 15.8917 26.7997 15.8596 26.6506 15.8596C26.477 15.8596 26.3194 15.8886 26.1915 15.9488C26.0633 16.009 25.9556 16.091 25.8712 16.1933C25.7867 16.2951 25.7231 16.4165 25.6828 16.5543C25.6421 16.6914 25.6216 16.8408 25.6216 16.9984C25.6216 17.1587 25.6428 17.3081 25.6848 17.4425C25.7272 17.5779 25.7949 17.6972 25.8865 17.796C25.9778 17.8955 26.0954 17.9734 26.2363 18.0278C26.3761 18.0818 26.546 18.1098 26.7412 18.1095C27.1429 18.1081 27.3546 18.0186 27.4418 17.9703C27.4571 17.9618 27.4718 17.9468 27.4534 17.9037L27.3624 17.649C27.3488 17.611 27.3101 17.625 27.3101 17.625C27.2106 17.662 27.0691 17.7283 26.7392 17.7276C26.5235 17.7273 26.3635 17.6637 26.2633 17.5642C26.1604 17.4623 26.1101 17.3126 26.1012 17.1013L27.4924 17.1027C27.4924 17.1027 27.5289 17.102 27.5327 17.0664C27.5341 17.0514 27.5806 16.7806 27.4913 16.4671Z" fill="#00A1E0"/>
<path d="M14.9671 16.758C14.9869 16.6257 15.0232 16.5156 15.0796 16.4298C15.1647 16.2996 15.2946 16.2281 15.4772 16.2281C15.6598 16.2281 15.7804 16.2999 15.8673 16.4298C15.9244 16.5156 15.9493 16.6305 15.9592 16.758H14.9671ZM16.3504 16.4671C16.3155 16.3355 16.2293 16.2025 16.1726 16.1416C16.083 16.0452 15.9955 15.9779 15.9086 15.9403C15.7951 15.8917 15.6591 15.8596 15.51 15.8596C15.3367 15.8596 15.1787 15.8886 15.0509 15.9488C14.9227 16.009 14.815 16.091 14.7305 16.1933C14.6461 16.2951 14.5825 16.4165 14.5422 16.5543C14.5018 16.6914 14.481 16.8408 14.481 16.9984C14.481 17.1587 14.5022 17.3081 14.5442 17.4425C14.5866 17.5779 14.6543 17.6972 14.7459 17.796C14.8372 17.8955 14.9548 17.9734 15.0957 18.0278C15.2355 18.0818 15.4054 18.1098 15.6006 18.1095C16.0023 18.1081 16.2139 18.0186 16.3011 17.9703C16.3165 17.9618 16.3312 17.9468 16.3128 17.9037L16.2222 17.649C16.2081 17.611 16.1695 17.625 16.1695 17.625C16.07 17.662 15.9288 17.7283 15.5982 17.7276C15.3828 17.7273 15.2228 17.6637 15.1227 17.5642C15.0198 17.4623 14.9695 17.3126 14.9606 17.1013L16.3517 17.1027C16.3517 17.1027 16.3883 17.102 16.3921 17.0664C16.3934 17.0514 16.4399 16.7806 16.3504 16.4671Z" fill="#00A1E0"/>
<path d="M11.9603 17.6689C11.906 17.6255 11.8985 17.6146 11.88 17.5865C11.8527 17.5438 11.8386 17.4829 11.8386 17.4057C11.8386 17.2833 11.879 17.1954 11.9627 17.1363C11.9617 17.1366 12.0824 17.032 12.3662 17.0357C12.5655 17.0385 12.7436 17.0679 12.7436 17.0679V17.7004H12.7439C12.7439 17.7004 12.5672 17.7383 12.3682 17.7503C12.0851 17.7674 11.9593 17.6686 11.9603 17.6689ZM12.5138 16.6915C12.4574 16.6874 12.3843 16.685 12.2968 16.685C12.1774 16.685 12.0622 16.7 11.9542 16.7291C11.8455 16.7581 11.7477 16.8036 11.6636 16.8638C11.5791 16.9243 11.5111 17.0016 11.4619 17.0932C11.4127 17.1848 11.3877 17.2928 11.3877 17.4139C11.3877 17.5369 11.4089 17.644 11.4513 17.7315C11.4937 17.8193 11.5549 17.8925 11.6328 17.9489C11.7101 18.0053 11.8055 18.0467 11.9162 18.0716C12.0253 18.0966 12.1491 18.1093 12.2844 18.1093C12.427 18.1093 12.5692 18.0976 12.707 18.074C12.8434 18.0508 13.0109 18.0169 13.0574 18.0063C13.1036 17.9954 13.1549 17.9814 13.1549 17.9814C13.1894 17.9728 13.1867 17.9359 13.1867 17.9359L13.186 16.6638C13.186 16.3848 13.1115 16.178 12.9648 16.0498C12.8188 15.9219 12.6038 15.8573 12.3258 15.8573C12.2215 15.8573 12.0537 15.8716 11.9532 15.8918C11.9532 15.8918 11.6492 15.9506 11.5241 16.0484C11.5241 16.0484 11.4968 16.0655 11.5118 16.1038L11.6103 16.3684C11.6226 16.4026 11.6557 16.391 11.6557 16.391C11.6557 16.391 11.6663 16.3869 11.6786 16.3797C11.9463 16.234 12.2848 16.2385 12.2848 16.2385C12.4352 16.2385 12.5508 16.2686 12.6287 16.3284C12.7046 16.3865 12.7433 16.4744 12.7433 16.6597V16.7185C12.6236 16.7014 12.5138 16.6915 12.5138 16.6915Z" fill="#00A1E0"/>
<path d="M23.7337 15.9747C23.7443 15.9433 23.722 15.9282 23.7128 15.9248C23.6892 15.9156 23.5709 15.8906 23.4796 15.8848C23.3049 15.8742 23.2079 15.9036 23.121 15.9426C23.0349 15.9816 22.9391 16.0445 22.8858 16.1159V15.9467C22.8858 15.9231 22.869 15.9043 22.8458 15.9043H22.4892C22.466 15.9043 22.4492 15.9231 22.4492 15.9467V18.0216C22.4492 18.0448 22.4684 18.064 22.4916 18.064H22.8571C22.8803 18.064 22.8991 18.0448 22.8991 18.0216V16.985C22.8991 16.8458 22.9145 16.707 22.9453 16.6199C22.9754 16.5337 23.0164 16.4646 23.067 16.4151C23.1179 16.3658 23.1757 16.3313 23.239 16.3118C23.3036 16.292 23.375 16.2855 23.4256 16.2855C23.4985 16.2855 23.5784 16.3043 23.5784 16.3043C23.6051 16.3074 23.6202 16.291 23.629 16.2667C23.653 16.2031 23.7207 16.0127 23.7337 15.9747Z" fill="#00A1E0"/>
<path d="M20.3032 15.013C20.2588 14.9994 20.2185 14.9901 20.1658 14.9802C20.1125 14.9707 20.0489 14.9659 19.9768 14.9659C19.7251 14.9659 19.5268 15.037 19.3877 15.1772C19.2492 15.3166 19.1552 15.5289 19.108 15.8083L19.0909 15.9023H18.775C18.775 15.9023 18.7368 15.9009 18.7285 15.9426L18.6769 16.2322C18.6732 16.2595 18.6851 16.277 18.7221 16.277H19.0294L18.7176 18.0178C18.6933 18.158 18.6653 18.2732 18.6342 18.3607C18.6038 18.4469 18.574 18.5115 18.5371 18.5587C18.5015 18.6038 18.468 18.6373 18.4099 18.6568C18.3621 18.6729 18.3067 18.6804 18.2462 18.6804C18.2127 18.6804 18.1679 18.6749 18.1347 18.6681C18.1019 18.6616 18.0844 18.6544 18.0595 18.6438C18.0595 18.6438 18.0236 18.6301 18.0092 18.666C17.998 18.6958 17.9159 18.9211 17.906 18.9488C17.8964 18.9765 17.9101 18.998 17.9275 19.0045C17.9685 19.0189 17.999 19.0284 18.0547 19.0418C18.132 19.0599 18.1973 19.0609 18.2585 19.0609C18.3863 19.0609 18.5032 19.0428 18.6 19.0079C18.6971 18.9727 18.7819 18.9115 18.8571 18.8288C18.9381 18.7392 18.9891 18.6455 19.0376 18.5173C19.0858 18.3908 19.1272 18.2336 19.16 18.0503L19.4735 16.277H19.9316C19.9316 16.277 19.9703 16.2783 19.9781 16.2363L20.0301 15.9471C20.0335 15.9194 20.0219 15.9023 19.9846 15.9023H19.5398C19.5422 15.8924 19.5624 15.7358 19.6133 15.5884C19.6352 15.5259 19.6762 15.4749 19.7108 15.4401C19.745 15.4059 19.7843 15.3816 19.8274 15.3676C19.8715 15.3532 19.9217 15.3464 19.9768 15.3464C20.0185 15.3464 20.0598 15.3512 20.0909 15.3577C20.134 15.3669 20.1508 15.3717 20.1621 15.3751C20.2075 15.3888 20.2137 15.3754 20.2226 15.3536L20.3289 15.0616C20.3398 15.0301 20.3128 15.0168 20.3032 15.013Z" fill="#00A1E0"/>
<path d="M14.0887 18.0217C14.0887 18.0449 14.0719 18.0637 14.0487 18.0637H13.6798C13.6565 18.0637 13.6401 18.0449 13.6401 18.0217V15.0528C13.6401 15.0295 13.6565 15.0107 13.6798 15.0107H14.0487C14.0719 15.0107 14.0887 15.0295 14.0887 15.0528V18.0217Z" fill="#00A1E0"/>
</svg>
