<svg width="35" height="35" viewBox="0 0 35 35" fill="none" xmlns="http://www.w3.org/2000/svg">
<rect width="35" height="35" rx="2" fill="#0D9349"/>
<path d="M10.2927 26.9995C9.27724 26.9995 9 26.7261 9 25.7064V10.2727C9 9.29978 9.29244 9.00232 10.2716 9.0019C19.4232 8.99937 16.5753 8.99937 25.7269 9.0019C26.6921 9.0019 26.9972 9.31113 26.9976 10.2802V25.714C26.9976 26.7223 26.712 26.9995 25.6936 26.9995H17.9658C13.4081 26.9999 14.8503 27.0004 10.2927 26.9995ZM25.3877 25.7144C25.4741 25.7144 25.5569 25.6801 25.618 25.619C25.679 25.558 25.7134 25.4751 25.7134 25.3887V21.8823C25.7134 21.7959 25.679 21.7131 25.618 21.652C25.5569 21.5909 25.4741 21.5566 25.3877 21.5566H21.8813C21.7949 21.5566 21.712 21.5909 21.651 21.652C21.5899 21.7131 21.5556 21.7959 21.5556 21.8823V25.3887C21.5556 25.4751 21.5899 25.558 21.651 25.619C21.712 25.6801 21.7949 25.7144 21.8813 25.7144H25.3877ZM16.2445 25.7144H19.751C19.8373 25.7144 19.9202 25.6801 19.9813 25.619C20.0424 25.558 20.0767 25.4751 20.0767 25.3887V21.8823C20.0767 21.7959 20.0424 21.7131 19.9813 21.652C19.9202 21.5909 19.8373 21.5566 19.751 21.5566H16.2445C16.1582 21.5566 16.0754 21.5909 16.0143 21.652C15.9532 21.7131 15.9189 21.7959 15.9189 21.8823V25.3887C15.9189 25.4316 15.9273 25.4741 15.9438 25.5137C15.9602 25.5533 15.9843 25.5892 16.0147 25.6195C16.0451 25.6497 16.0811 25.6737 16.1208 25.69C16.1605 25.7063 16.203 25.7146 16.2458 25.7144H16.2445ZM10.6091 25.7144H14.1155C14.2019 25.7144 14.2847 25.6801 14.3458 25.619C14.4069 25.558 14.4412 25.4751 14.4412 25.3887V21.8823C14.4412 21.7959 14.4069 21.7131 14.3458 21.652C14.2847 21.5909 14.2019 21.5566 14.1155 21.5566H10.6087C10.5223 21.5566 10.4395 21.5909 10.3784 21.652C10.3173 21.7131 10.283 21.7959 10.283 21.8823V25.3887C10.283 25.4751 10.3173 25.558 10.3784 25.619C10.4395 25.6801 10.5223 25.7144 10.6087 25.7144H10.6091ZM21.88 20.0789H25.3864C25.4728 20.0789 25.5557 20.0447 25.6167 19.9836C25.6778 19.9225 25.7121 19.8397 25.7121 19.7533V16.2469C25.7121 16.1605 25.6778 16.0776 25.6167 16.0165C25.5557 15.9555 25.4728 15.9212 25.3864 15.9212H21.88C21.7936 15.9212 21.7108 15.9555 21.6497 16.0165C21.5886 16.0776 21.5543 16.1605 21.5543 16.2469V19.7533C21.5543 19.7961 21.5628 19.8386 21.5792 19.8782C21.5957 19.9178 21.6198 19.9537 21.6501 19.984C21.6805 20.0143 21.7166 20.0382 21.7562 20.0545C21.7959 20.0708 21.8384 20.0791 21.8813 20.0789H21.88ZM16.2445 20.0789H19.751C19.8373 20.0789 19.9202 20.0447 19.9813 19.9836C20.0424 19.9225 20.0767 19.8397 20.0767 19.7533V16.2469C20.0767 16.1605 20.0424 16.0776 19.9813 16.0165C19.9202 15.9555 19.8373 15.9212 19.751 15.9212H16.2445C16.1582 15.9212 16.0754 15.9555 16.0143 16.0165C15.9532 16.0776 15.9189 16.1605 15.9189 16.2469V19.7533C15.9189 19.7961 15.9273 19.8386 15.9438 19.8782C15.9602 19.9178 15.9843 19.9537 16.0147 19.984C16.0451 20.0143 16.0811 20.0382 16.1208 20.0545C16.1605 20.0708 16.203 20.0791 16.2458 20.0789H16.2445ZM10.6091 20.0789H14.1155C14.2019 20.0789 14.2847 20.0447 14.3458 19.9836C14.4069 19.9225 14.4412 19.8397 14.4412 19.7533V16.2469C14.4412 16.1605 14.4069 16.0776 14.3458 16.0165C14.2847 15.9555 14.2019 15.9212 14.1155 15.9212H10.6087C10.5223 15.9212 10.4395 15.9555 10.3784 16.0165C10.3173 16.0776 10.283 16.1605 10.283 16.2469V19.7533C10.283 19.8397 10.3173 19.9225 10.3784 19.9836C10.4395 20.0447 10.5223 20.0789 10.6087 20.0789H10.6091ZM16.2445 14.4435H19.751C19.9309 14.4435 20.0767 14.3555 20.0767 14.2468V12.1291C20.0767 12.0204 19.9309 11.9327 19.751 11.9327H16.2445C16.0646 11.9327 15.9189 12.0204 15.9189 12.1291V14.2468C15.9201 14.3555 16.0659 14.4435 16.2458 14.4435H16.2445ZM21.8695 14.4435H25.3759C25.5558 14.4435 25.7016 14.3555 25.7016 14.2468V12.1291C25.7016 12.0204 25.5558 11.9327 25.3759 11.9327H21.8695C21.6896 11.9327 21.5438 12.0204 21.5438 12.1291V14.2468C21.545 14.3555 21.69 14.4435 21.8707 14.4435H21.8695ZM10.6091 14.4435H14.1155C14.2954 14.4435 14.4412 14.3555 14.4412 14.2468V12.1291C14.4412 12.0204 14.2954 11.9327 14.1155 11.9327H10.6087C10.4288 11.9327 10.283 12.0204 10.283 12.1291V14.2468C10.2847 14.3555 10.4305 14.4435 10.6087 14.4435H10.6091Z" fill="white"/>
</svg>
