<svg width="35" height="35" viewBox="0 0 35 35" fill="none" xmlns="http://www.w3.org/2000/svg">
<rect width="35" height="35" rx="2" fill="#6DB166"/>
<path d="M20.6979 16.5402C21.2203 16.5402 21.6439 16.105 21.6439 15.5682C21.6439 15.0313 21.2203 14.5961 20.6979 14.5961C20.1755 14.5961 19.752 15.0313 19.752 15.5682C19.752 16.105 20.1755 16.5402 20.6979 16.5402Z" fill="white"/>
<path d="M27.5752 18.0115C27.6519 17.5386 27.703 17.0131 27.703 16.5402C27.7286 12.3892 24.3794 9 20.2376 9C17.6554 9 15.4055 10.2874 14.0505 12.3103C13.5392 12.1527 12.9512 12.0213 12.3376 12.0213C9.47413 12.0213 7.17315 14.2545 7.17315 17.0131C7.17315 17.381 7.22428 17.7488 7.30098 18.1166C5.94596 18.6158 5 19.9294 5 21.4532C5 23.3974 6.58512 25 8.52817 25H26.5014C28.4444 25 30.0295 23.3974 30.0295 21.4532C30.0295 19.8243 29.0069 18.5107 27.5752 18.0115ZM21.8738 19.0887C20.7489 19.9557 19.2661 19.9819 18.1156 19.3251L12.8233 23.3448L10.8036 23.2397L11.6473 20.6125L12.8745 20.6913L13.1557 19.4565L14.3829 19.5353L14.6641 18.3005L16.4282 16.9606C16.147 15.647 16.6327 14.202 17.7577 13.3612C19.2916 12.2053 21.4648 12.5468 22.5897 14.1232C23.7146 15.6995 23.4078 17.9327 21.8738 19.0887Z" fill="white"/>
</svg>
